<mxfile host="app.diagrams.net" modified="2023-12-07T13:44:01.841Z" agent="Mozilla/5.0 (Windows NT 10.0; Win64; x64) AppleWebKit/537.36 (KHTML, like Gecko) Chrome/119.0.0.0 Safari/537.36 Edg/119.0.0.0" version="22.1.7" etag="fBS_UkhSBGz49G_lRoB-" type="github">
  <diagram name="第 1 页" id="DenZLdO3r4VADLiXXg4M">
    <mxGraphModel>
      <root>
        <mxCell id="0" />
        <mxCell id="1" parent="0" />
      </root>
    </mxGraphModel>
  </diagram>
</mxfile>
